<svg xmlns:xlink="http://www.w3.org/1999/xlink" width="225" viewBox="0 0 225 81" fill="none" xmlns="http://www.w3.org/2000/svg" height="81" ><path d="M99.84 31V13.96H93.12V10H111.42V13.96H104.7V31H99.84ZM120.074 31.24C118.234 31.24 116.614 30.88 115.214 30.16C113.834 29.44 112.764 28.46 112.004 27.22C111.244 25.96 110.864 24.53 110.864 22.93C110.864 21.31 111.234 19.88 111.974 18.64C112.734 17.38 113.764 16.4 115.064 15.7C116.364 14.98 117.834 14.62 119.474 14.62C121.054 14.62 122.474 14.96 123.734 15.64C125.014 16.3 126.024 17.26 126.764 18.52C127.504 19.76 127.874 21.25 127.874 22.99C127.874 23.17 127.864 23.38 127.844 23.62C127.824 23.84 127.804 24.05 127.784 24.25H114.674V21.52H125.324L123.524 22.33C123.524 21.49 123.354 20.76 123.014 20.14C122.674 19.52 122.204 19.04 121.604 18.7C121.004 18.34 120.304 18.16 119.504 18.16C118.704 18.16 117.994 18.34 117.374 18.7C116.774 19.04 116.304 19.53 115.964 20.17C115.624 20.79 115.454 21.53 115.454 22.39V23.11C115.454 23.99 115.644 24.77 116.024 25.45C116.424 26.11 116.974 26.62 117.674 26.98C118.394 27.32 119.234 27.49 120.194 27.49C121.054 27.49 121.804 27.36 122.444 27.1C123.104 26.84 123.704 26.45 124.244 25.93L126.734 28.63C125.994 29.47 125.064 30.12 123.944 30.58C122.824 31.02 121.534 31.24 120.074 31.24ZM140.8 14.62C142.08 14.62 143.22 14.88 144.22 15.4C145.24 15.9 146.04 16.68 146.62 17.74C147.2 18.78 147.49 20.12 147.49 21.76V31H142.81V22.48C142.81 21.18 142.52 20.22 141.94 19.6C141.38 18.98 140.58 18.67 139.54 18.67C138.8 18.67 138.13 18.83 137.53 19.15C136.95 19.45 136.49 19.92 136.15 20.56C135.83 21.2 135.67 22.02 135.67 23.02V31H130.99V14.86H135.46V19.33L134.62 17.98C135.2 16.9 136.03 16.07 137.11 15.49C138.19 14.91 139.42 14.62 140.8 14.62ZM161.632 31V27.85L161.332 27.16V21.52C161.332 20.52 161.022 19.74 160.402 19.18C159.802 18.62 158.872 18.34 157.612 18.34C156.752 18.34 155.902 18.48 155.062 18.76C154.242 19.02 153.542 19.38 152.962 19.84L151.282 16.57C152.162 15.95 153.222 15.47 154.462 15.13C155.702 14.79 156.962 14.62 158.242 14.62C160.702 14.62 162.612 15.2 163.972 16.36C165.332 17.52 166.012 19.33 166.012 21.79V31H161.632ZM156.712 31.24C155.452 31.24 154.372 31.03 153.472 30.61C152.572 30.17 151.882 29.58 151.402 28.84C150.922 28.1 150.682 27.27 150.682 26.35C150.682 25.39 150.912 24.55 151.372 23.83C151.852 23.11 152.602 22.55 153.622 22.15C154.642 21.73 155.972 21.52 157.612 21.52H161.902V24.25H158.122C157.022 24.25 156.262 24.43 155.842 24.79C155.442 25.15 155.242 25.6 155.242 26.14C155.242 26.74 155.472 27.22 155.932 27.58C156.412 27.92 157.062 28.09 157.882 28.09C158.662 28.09 159.362 27.91 159.982 27.55C160.602 27.17 161.052 26.62 161.332 25.9L162.052 28.06C161.712 29.1 161.092 29.89 160.192 30.43C159.292 30.97 158.132 31.24 156.712 31.24ZM180.058 14.62C181.338 14.62 182.478 14.88 183.478 15.4C184.498 15.9 185.298 16.68 185.878 17.74C186.458 18.78 186.748 20.12 186.748 21.76V31H182.068V22.48C182.068 21.18 181.778 20.22 181.198 19.6C180.638 18.98 179.838 18.67 178.798 18.67C178.058 18.67 177.388 18.83 176.788 19.15C176.208 19.45 175.748 19.92 175.408 20.56C175.088 21.2 174.928 22.02 174.928 23.02V31H170.248V14.86H174.718V19.33L173.878 17.98C174.458 16.9 175.288 16.07 176.368 15.49C177.448 14.91 178.678 14.62 180.058 14.62ZM198.907 31.24C197.167 31.24 195.617 30.89 194.257 30.19C192.897 29.47 191.827 28.48 191.047 27.22C190.287 25.96 189.907 24.53 189.907 22.93C189.907 21.31 190.287 19.88 191.047 18.64C191.827 17.38 192.897 16.4 194.257 15.7C195.617 14.98 197.167 14.62 198.907 14.62C200.607 14.62 202.087 14.98 203.347 15.7C204.607 16.4 205.537 17.41 206.137 18.73L202.507 20.68C202.087 19.92 201.557 19.36 200.917 19C200.297 18.64 199.617 18.46 198.877 18.46C198.077 18.46 197.357 18.64 196.717 19C196.077 19.36 195.567 19.87 195.187 20.53C194.827 21.19 194.647 21.99 194.647 22.93C194.647 23.87 194.827 24.67 195.187 25.33C195.567 25.99 196.077 26.5 196.717 26.86C197.357 27.22 198.077 27.4 198.877 27.4C199.617 27.4 200.297 27.23 200.917 26.89C201.557 26.53 202.087 25.96 202.507 25.18L206.137 27.16C205.537 28.46 204.607 29.47 203.347 30.19C202.087 30.89 200.607 31.24 198.907 31.24ZM210.638 37.06C209.798 37.06 208.968 36.93 208.148 36.67C207.328 36.41 206.658 36.05 206.137 35.59L207.848 32.26C208.208 32.58 208.618 32.83 209.078 33.01C209.558 33.19 210.028 33.28 210.488 33.28C211.148 33.28 211.668 33.12 212.048 32.8C212.448 32.5 212.808 31.99 213.128 31.27L213.968 29.29L214.328 28.78L220.118 14.86H224.618L217.328 31.99C216.808 33.29 216.208 34.31 215.528 35.05C214.868 35.79 214.128 36.31 213.308 36.61C212.508 36.91 211.618 37.06 210.638 37.06ZM213.398 31.63L206.197 14.86H211.028L216.608 28.36L213.398 31.63Z" fill="#5A0730"></path><path d="M105.088 69H103.188V48.8477H110.543C111.874 48.8477 112.967 48.9844 113.824 49.2578C114.681 49.5768 115.342 49.987 115.807 50.4883C116.709 51.5729 117.151 52.8991 117.133 54.4668C117.087 56.6543 116.271 58.1491 114.686 58.9512C113.118 59.7533 111.354 60.1361 109.395 60.0996H105.088V69ZM105.088 58.4727H109.449C111.263 58.4909 112.685 58.222 113.715 57.666C114.699 57.1009 115.201 55.9889 115.219 54.3301C115.237 51.7689 113.501 50.4792 110.01 50.4609H105.088V58.4727ZM129.629 61.3848C128.918 61.6491 128.198 61.8359 127.469 61.9453C126.74 62.0729 126.01 62.1549 125.281 62.1914C122.592 62.3464 121.23 63.3763 121.193 65.2812C121.212 66.138 121.54 66.7806 122.178 67.209C122.798 67.6556 123.518 67.8789 124.338 67.8789C125.732 67.8789 126.954 67.5326 128.002 66.8398C129.05 66.1745 129.592 65.1126 129.629 63.6543V61.3848ZM124.475 60.8516L126.799 60.5508C127.136 60.5052 127.519 60.446 127.947 60.373C128.357 60.2819 128.713 60.1816 129.014 60.0723C129.287 59.9173 129.465 59.694 129.547 59.4023C129.602 59.1016 129.629 58.819 129.629 58.5547C129.629 57.6797 129.355 56.9733 128.809 56.4355C128.253 55.9069 127.318 55.6335 126.006 55.6152C124.857 55.597 123.91 55.8203 123.162 56.2852C122.433 56.7773 121.973 57.6478 121.781 58.8965H120.072C120.245 57.1921 120.883 55.957 121.986 55.1914C123.08 54.4714 124.434 54.1113 126.047 54.1113C127.551 54.1113 128.799 54.4349 129.793 55.082C130.777 55.7747 131.283 56.9505 131.311 58.6094V66.5117C131.283 67.1406 131.402 67.5417 131.666 67.7148C131.912 67.8971 132.382 67.8698 133.074 67.6328V68.9453C132.956 68.9818 132.778 69.0273 132.541 69.082C132.277 69.1732 132.012 69.2188 131.748 69.2188C131.493 69.2188 131.242 69.1914 130.996 69.1367C130.458 69.0273 130.103 68.7676 129.93 68.3574C129.766 67.9473 129.674 67.4915 129.656 66.9902C128.198 68.5762 126.393 69.3783 124.242 69.3965C122.939 69.3965 121.822 69.041 120.893 68.3301C119.917 67.6556 119.421 66.6211 119.402 65.2266C119.402 62.7747 121.093 61.3164 124.475 60.8516ZM134.988 64.4609H136.697C137.144 66.7943 138.593 67.9336 141.045 67.8789C142.275 67.8607 143.178 67.5827 143.752 67.0449C144.335 66.5345 144.627 65.9147 144.627 65.1855C144.627 64.666 144.504 64.2376 144.258 63.9004C143.993 63.5632 143.638 63.3034 143.191 63.1211C143.009 63.0117 142.786 62.916 142.521 62.834C142.257 62.7428 141.988 62.6699 141.715 62.6152C141.15 62.5059 140.571 62.3965 139.979 62.2871C139.696 62.1868 139.423 62.1003 139.158 62.0273C138.885 61.9727 138.607 61.8997 138.324 61.8086C137.759 61.6354 137.253 61.4121 136.807 61.1387C136.36 60.8379 136.005 60.4551 135.74 59.9902C135.467 59.5163 135.33 58.9375 135.33 58.2539C135.33 57.0143 135.786 56.0163 136.697 55.2598C137.572 54.5124 138.812 54.1296 140.416 54.1113C143.652 54.0475 145.52 55.5651 146.021 58.6641H144.312C144.167 57.543 143.747 56.75 143.055 56.2852C142.344 55.8385 141.455 55.6152 140.389 55.6152C138.229 55.6699 137.139 56.4993 137.121 58.1035C137.121 58.5775 137.262 58.9694 137.545 59.2793C137.8 59.5801 138.151 59.8353 138.598 60.0449C139.518 60.4368 140.576 60.7513 141.77 60.9883C142.362 61.125 142.941 61.2845 143.506 61.4668C144.062 61.6582 144.554 61.9089 144.982 62.2188C145.429 62.5195 145.785 62.9115 146.049 63.3945C146.295 63.8685 146.418 64.4564 146.418 65.1582C146.4 66.5436 145.848 67.5918 144.764 68.3027C143.661 69.0319 142.243 69.3965 140.512 69.3965C138.789 69.3783 137.463 68.8906 136.533 67.9336C135.594 67.0221 135.079 65.8646 134.988 64.4609ZM148.988 64.4609H150.697C151.144 66.7943 152.593 67.9336 155.045 67.8789C156.275 67.8607 157.178 67.5827 157.752 67.0449C158.335 66.5345 158.627 65.9147 158.627 65.1855C158.627 64.666 158.504 64.2376 158.258 63.9004C157.993 63.5632 157.638 63.3034 157.191 63.1211C157.009 63.0117 156.786 62.916 156.521 62.834C156.257 62.7428 155.988 62.6699 155.715 62.6152C155.15 62.5059 154.571 62.3965 153.979 62.2871C153.696 62.1868 153.423 62.1003 153.158 62.0273C152.885 61.9727 152.607 61.8997 152.324 61.8086C151.759 61.6354 151.253 61.4121 150.807 61.1387C150.36 60.8379 150.005 60.4551 149.74 59.9902C149.467 59.5163 149.33 58.9375 149.33 58.2539C149.33 57.0143 149.786 56.0163 150.697 55.2598C151.572 54.5124 152.812 54.1296 154.416 54.1113C157.652 54.0475 159.52 55.5651 160.021 58.6641H158.312C158.167 57.543 157.747 56.75 157.055 56.2852C156.344 55.8385 155.455 55.6152 154.389 55.6152C152.229 55.6699 151.139 56.4993 151.121 58.1035C151.121 58.5775 151.262 58.9694 151.545 59.2793C151.8 59.5801 152.151 59.8353 152.598 60.0449C153.518 60.4368 154.576 60.7513 155.77 60.9883C156.362 61.125 156.941 61.2845 157.506 61.4668C158.062 61.6582 158.554 61.9089 158.982 62.2188C159.429 62.5195 159.785 62.9115 160.049 63.3945C160.295 63.8685 160.418 64.4564 160.418 65.1582C160.4 66.5436 159.848 67.5918 158.764 68.3027C157.661 69.0319 156.243 69.3965 154.512 69.3965C152.789 69.3783 151.463 68.8906 150.533 67.9336C149.594 67.0221 149.079 65.8646 148.988 64.4609ZM165.6 61.8086C165.6 63.4674 166.037 64.8848 166.912 66.0605C167.769 67.2546 168.963 67.8607 170.494 67.8789C172.226 67.8607 173.516 67.209 174.363 65.9238C175.184 64.7116 175.544 63.1712 175.443 61.3027C175.407 59.4707 174.942 58.0625 174.049 57.0781C173.137 56.1029 171.952 55.6152 170.494 55.6152C168.908 55.6335 167.705 56.2214 166.885 57.3789C166.028 58.5365 165.6 60.013 165.6 61.8086ZM165.6 66.6758V74.7148H163.918V54.4941H165.6V57.0508H165.654C166.192 56.0755 166.93 55.3372 167.869 54.8359C168.799 54.3529 169.738 54.1113 170.686 54.1113C173.019 54.1296 174.71 54.8542 175.758 56.2852C176.751 57.707 177.248 59.5208 177.248 61.7266C177.248 63.7956 176.724 65.5684 175.676 67.0449C174.609 68.5762 172.978 69.36 170.781 69.3965C169.751 69.3965 168.767 69.1504 167.828 68.6582C166.898 68.2116 166.156 67.5508 165.6 66.6758ZM186.6 69.3965C184.695 69.3783 183.118 68.722 181.869 67.4277C180.566 66.1608 179.905 64.2695 179.887 61.7539C179.887 59.5664 180.447 57.7526 181.568 56.3125C182.689 54.8815 184.367 54.1478 186.6 54.1113C188.86 54.1478 190.551 54.8815 191.672 56.3125C192.775 57.7526 193.326 59.5664 193.326 61.7539C193.308 64.0872 192.702 65.9238 191.508 67.2637C190.314 68.6673 188.678 69.3783 186.6 69.3965ZM191.535 61.7539C191.553 59.9948 191.18 58.5365 190.414 57.3789C189.648 56.2214 188.377 55.6335 186.6 55.6152C184.85 55.6517 183.592 56.276 182.826 57.4883C182.061 58.7005 181.678 60.1224 181.678 61.7539C181.678 63.5768 182.106 65.0397 182.963 66.1426C183.783 67.2819 184.995 67.8607 186.6 67.8789C188.359 67.8607 189.63 67.2272 190.414 65.9785C191.161 64.7663 191.535 63.3581 191.535 61.7539ZM198.18 61.8906V69H196.512V54.4941H198.18V57.2148H198.248C198.713 56.0573 199.319 55.2461 200.066 54.7812C200.814 54.3346 201.785 54.1113 202.979 54.1113V55.9297C201.128 55.9297 199.857 56.4993 199.164 57.6387C198.49 58.7962 198.161 60.2135 198.18 61.8906ZM211.359 67.6875V69.0547C211.159 69.0911 210.899 69.1458 210.58 69.2188C210.243 69.319 209.86 69.3783 209.432 69.3965C208.611 69.3965 207.987 69.1823 207.559 68.7539C207.085 68.2982 206.848 67.5508 206.848 66.5117V55.9023H204.811V54.4941H206.848V50.4609H208.529V54.4941H211.25V55.9023H208.529V65.8418C208.511 66.5254 208.589 67.0358 208.762 67.373C208.908 67.7103 209.318 67.8789 209.992 67.8789C210.457 67.8789 210.913 67.8151 211.359 67.6875Z" fill="#5A0730"></path><path d="M0 35.9183C0 33.2271 1.20432 30.6771 3.28274 28.9675L32.7827 4.70266C36.1046 1.97033 40.8954 1.97033 44.2173 4.70266L73.7173 28.9675C75.7957 30.6771 77 33.2271 77 35.9183V68C77 72.9706 72.9706 77 68 77H9C4.02944 77 0 72.9706 0 68V35.9183Z" fill="url(&quot;#paint0_linear_312_4&quot;)"></path><path d="M27.9413 26.9077C27.9413 25.8031 28.8367 24.9077 29.9413 24.9077H47.285C48.3895 24.9077 49.285 25.8031 49.285 26.9077V30.5994H27.9413V26.9077Z" fill="url(&quot;#paint1_linear_312_4&quot;)"></path><path d="M27.9413 32.022H49.285V35.7136C49.285 36.8182 48.3895 37.7136 47.285 37.7136H29.9413C28.8367 37.7136 27.9413 36.8182 27.9413 35.7136V32.022Z" fill="url(&quot;#paint2_linear_312_4&quot;)"></path><circle cx="38.6128" cy="31.3107" r="3.05681" fill="url(&quot;#paint3_linear_312_4&quot;)" stroke="#91064B"></circle><path d="M46.5998 65.3252C49.2134 62.8724 50.9947 64.2869 52.2009 65.3275C54.4788 68.183 54.8634 73.4517 54.1288 75.7024C53.5126 79.2092 52.0892 78.0142 51.3126 78.089C49.8852 78.1822 49.582 75.3614 49.6088 73.9394C49.6505 73.6478 49.5518 72.6913 49.4972 72.2495C48.987 70.8746 47.875 71.6453 47.3926 72.1342C45.8742 73.8511 44.4686 73.967 43.3772 74.1828C41.7904 74.402 41.1317 74.3006 40.953 73.9031C40.4822 73.2405 41.1832 72.9192 41.7867 72.8196L43.3045 72.293C44.3162 72.1402 46.2331 70.3564 47.0651 69.4835C47.4048 69.0858 47.3917 68.8483 47.3426 68.7793C47.2249 68.6137 46.9124 68.9037 46.7708 69.0695L45.9475 69.8815C44.4709 71.3068 43.4895 71.4378 42.3316 71.7061C41.3542 72.0138 40.5656 71.8252 40.5023 71.4442C40.3504 70.5297 41.2981 70.3479 41.6128 70.207L42.5928 69.8818C44.0567 69.5334 45.5654 66.789 46.5998 65.3252Z" fill="#F3F2F2"></path><circle cx="48.3696" cy="60.3822" r="3.09361" fill="#F3F2F2"></circle><path d="M37.4943 72.6017C36.489 72.0512 35.657 71.3486 35.1978 70.8688L30.5548 64.8775C28.6473 62.836 25.9117 63.657 24.7823 64.3227C21.6702 65.5654 21.1431 74.0864 21.2686 78.1915C21.5698 80.4105 23.5692 80.2256 24.5313 79.8558C26.6395 79.5007 27.3339 75.7136 27.4176 73.8645C27.4392 69.7697 30.262 73.1988 31.4332 73.9754C33.9877 75.0849 36.2399 75.1817 37.9047 74.9093C40.1086 74.5488 39.453 73.6744 37.4943 72.6017Z" fill="#F3F2F2"></path><circle cx="28.4704" cy="59.4579" r="3.09361" fill="#F3F2F2"></circle><defs><linearGradient id="paint0_linear_312_4" x1="38.5" y1="2.87748e-07" x2="57.8112" y2="290.286" gradientUnits="userSpaceOnUse"><stop stop-color="#B6075E"></stop><stop offset="0.601" stop-color="#1A000D"></stop></linearGradient><linearGradient id="paint1_linear_312_4" x1="37.852" y1="22.7149" x2="37.8994" y2="31.6764" gradientUnits="userSpaceOnUse"><stop offset="0.0760001" stop-color="#8B671D"></stop><stop offset="0.361" stop-color="#B58F38"></stop><stop offset="0.655" stop-color="#E0BD4D"></stop><stop offset="1" stop-color="#F5DCB7"></stop></linearGradient><linearGradient id="paint2_linear_312_4" x1="37.852" y1="29.8292" x2="37.8994" y2="38.7907" gradientUnits="userSpaceOnUse"><stop offset="0.0760001" stop-color="#8B671D"></stop><stop offset="0.361" stop-color="#B58F38"></stop><stop offset="0.655" stop-color="#E0BD4D"></stop><stop offset="1" stop-color="#F5DCB7"></stop></linearGradient><linearGradient id="paint3_linear_312_4" x1="38.3592" y1="25.0133" x2="38.5815" y2="36.2096" gradientUnits="userSpaceOnUse"><stop offset="0.0760001" stop-color="#8B671D"></stop><stop offset="0.361" stop-color="#B58F38"></stop><stop offset="0.655" stop-color="#E0BD4D"></stop><stop offset="1" stop-color="#F5DCB7"></stop></linearGradient><linearGradient id="paint0_linear_312_4" x1="38.5" y1="2.87748e-07" x2="57.8112" y2="290.286" gradientUnits="userSpaceOnUse"><stop stop-color="#B6075E"></stop><stop offset="0.601" stop-color="#1A000D"></stop></linearGradient><linearGradient id="paint1_linear_312_4" x1="37.852" y1="22.7149" x2="37.8994" y2="31.6764" gradientUnits="userSpaceOnUse"><stop offset="0.0760001" stop-color="#8B671D"></stop><stop offset="0.361" stop-color="#B58F38"></stop><stop offset="0.655" stop-color="#E0BD4D"></stop><stop offset="1" stop-color="#F5DCB7"></stop></linearGradient><linearGradient id="paint2_linear_312_4" x1="37.852" y1="29.8292" x2="37.8994" y2="38.7907" gradientUnits="userSpaceOnUse"><stop offset="0.0760001" stop-color="#8B671D"></stop><stop offset="0.361" stop-color="#B58F38"></stop><stop offset="0.655" stop-color="#E0BD4D"></stop><stop offset="1" stop-color="#F5DCB7"></stop></linearGradient><linearGradient id="paint3_linear_312_4" x1="38.3592" y1="25.0133" x2="38.5815" y2="36.2096" gradientUnits="userSpaceOnUse"><stop offset="0.0760001" stop-color="#8B671D"></stop><stop offset="0.361" stop-color="#B58F38"></stop><stop offset="0.655" stop-color="#E0BD4D"></stop><stop offset="1" stop-color="#F5DCB7"></stop></linearGradient></defs></svg>