<svg xmlns:xlink="http://www.w3.org/1999/xlink" xmlns="http://www.w3.org/2000/svg" width="60" height="62.73" viewBox="0 0 88 92" fill="none"><path d="M0 40.587C0 37.9212 1.18178 35.3926 3.22684 33.6826L37.7363 4.82727C41.0779 2.03313 45.941 2.03312 49.2826 4.82727L83.7921 33.6826C85.8371 35.3926 87.0189 37.9212 87.0189 40.587V79.4597C87.0189 84.4303 82.9895 88.4597 78.0189 88.4597H8.99999C4.02942 88.4597 0 84.4303 0 79.4597V40.587Z" fill="#F3F2F2"></path><path d="M30.4844 30.7353C30.4844 29.6308 31.3798 28.7354 32.4844 28.7354H52.8718C53.9764 28.7354 54.8718 29.6308 54.8718 30.7354V35.3464H30.4844V30.7353Z" fill="#AE075A"></path><path d="M30.4844 36.9985H54.8718V41.6095C54.8718 42.7141 53.9764 43.6095 52.8718 43.6095H32.4844C31.3798 43.6095 30.4844 42.7141 30.4844 41.6095V36.9985Z" fill="#AE075A"></path><path d="M46.2417 36.1723C46.2417 38.1856 44.6383 39.8037 42.6777 39.8037C40.717 39.8037 39.1136 38.1856 39.1136 36.1723C39.1136 34.159 40.717 32.541 42.6777 32.541C44.6383 32.541 46.2417 34.159 46.2417 36.1723Z" fill="#AE075A" stroke="#FFFFFF"></path><path d="M52.6631 75.0475C55.6168 72.2296 57.6299 73.8547 58.993 75.0501C61.5673 78.3306 62.002 84.3834 61.1718 86.969C60.4754 90.9978 58.8668 89.625 57.9891 89.7109C56.376 89.818 56.0333 86.5774 56.0636 84.9437C56.1108 84.6087 55.9992 83.5099 55.9375 83.0024C55.3609 81.4228 54.1043 82.3082 53.5591 82.8699C51.8431 84.8423 50.2547 84.9755 49.0213 85.2233C47.228 85.4751 46.4836 85.3587 46.2816 84.902C45.7496 84.1408 46.5418 83.7717 47.2238 83.6573L48.9391 83.0523C50.0824 82.8768 52.2487 80.8274 53.1889 79.8247C53.5729 79.3678 53.558 79.095 53.5026 79.0157C53.3696 78.8254 53.0164 79.1586 52.8564 79.349L51.926 80.2819C50.2572 81.9193 49.1481 82.0699 47.8396 82.378C46.735 82.7315 45.8438 82.5149 45.7723 82.0772C45.6006 81.0266 46.6716 80.8177 47.0273 80.6558L48.1348 80.2823C49.7892 79.882 51.4941 76.7292 52.6631 75.0475Z" fill="#AE075A"></path><ellipse cx="54.6632" cy="69.3685" rx="3.49614" ry="3.55402" fill="#AE075A"></ellipse><path d="M42.7382 83.6005C41.4396 82.9474 40.3512 82.0253 39.7777 81.4161L34.5305 74.5331C32.3749 72.1878 29.2833 73.131 28.0069 73.8958C24.4899 75.3234 23.8942 85.1125 24.0361 89.8286C24.3764 92.3779 26.636 92.1654 27.7233 91.7405C30.1058 91.3327 30.8905 86.9819 30.9851 84.8576C31.0095 80.1535 34.1996 84.0928 35.5232 84.985C38.6287 86.3562 41.3388 86.381 43.2525 85.9799C45.4655 85.5161 44.7582 84.6164 42.7382 83.6005Z" fill="#AE075A"></path><ellipse cx="32.1748" cy="68.3065" rx="3.49614" ry="3.55402" fill="#AE075A"></ellipse></svg>